<?xml version="1.0" standalone="no"?>
<!DOCTYPE svg PUBLIC "-//W3C//DTD SVG 20010904//EN"
 "http://www.w3.org/TR/2001/REC-SVG-20010904/DTD/svg10.dtd">
<svg version="1.0" xmlns="http://www.w3.org/2000/svg"
 width="800.000000pt" height="200.000000pt" viewBox="0 0 800.000000 200.000000"
 preserveAspectRatio="xMidYMid meet">

<g transform="translate(0.000000,200.000000) scale(0.100000,-0.100000)"
fill="#000000" stroke="none">
<path d="M581 1649 c-56 -11 -124 -51 -158 -93 -42 -53 -62 -117 -69 -221 l-7
-95 -73 0 -74 0 0 -110 0 -109 72 -3 73 -3 5 -340 5 -340 118 -3 c64 -1 118
-1 119 0 1 2 5 156 8 343 l5 340 110 5 110 5 0 105 0 105 -114 3 -114 3 5 70
c4 53 11 76 26 91 25 25 92 39 155 31 l47 -6 0 111 c0 91 -3 111 -16 116 -22
9 -181 5 -233 -5z"/>
<path d="M962 1648 c-19 -19 -17 -1291 2 -1307 9 -8 51 -11 122 -9 106 3 108
3 113 28 3 14 4 311 1 660 l-5 635 -110 3 c-77 2 -114 -1 -123 -10z"/>
<path d="M1715 1310 c-226 -46 -382 -222 -401 -454 -12 -134 52 -309 136 -376
77 -60 118 -74 220 -75 79 0 102 4 135 22 65 35 145 128 145 168 0 19 -6 20
-163 20 -179 1 -268 19 -337 70 -131 96 -76 252 107 306 36 10 44 18 54 48 22
69 58 127 102 168 53 49 87 68 150 84 26 6 47 15 47 20 0 11 -140 10 -195 -1z"/>
<path d="M2341 1231 c-13 -8 -2 -53 63 -278 153 -523 176 -598 193 -610 19
-14 229 -18 250 -5 6 4 16 19 22 33 8 22 95 338 131 477 12 48 25 48 35 -1 19
-85 137 -492 147 -504 11 -14 233 -19 254 -5 20 13 31 45 99 277 36 127 91
309 121 406 30 96 54 182 54 191 0 24 -21 28 -141 28 l-109 0 -11 -27 c-10
-28 -76 -298 -119 -486 -12 -54 -24 -96 -27 -94 -2 3 -26 88 -53 189 -80 304
-102 382 -111 401 -8 15 -25 17 -123 17 l-114 0 -11 -27 c-6 -16 -42 -151 -80
-301 -38 -150 -71 -275 -73 -277 -2 -2 -36 128 -77 289 -40 162 -78 299 -84
305 -13 13 -215 15 -236 2z"/>
<path d="M1862 1210 c-78 -33 -152 -110 -167 -172 l-7 -28 138 0 c283 -1 411
-60 422 -194 4 -50 2 -56 -33 -94 -25 -28 -58 -50 -106 -69 -65 -26 -70 -31
-80 -68 -35 -129 -121 -213 -257 -255 l-57 -17 70 -7 c151 -16 297 37 400 145
208 218 164 618 -80 738 -39 19 -69 26 -135 28 -47 2 -95 -2 -108 -7z"/>
</g>
</svg>
